<svg xmlns="http://www.w3.org/2000/svg" xmlns:xlink="http://www.w3.org/1999/xlink" width="30px" height="30px" viewBox="0 0 30 30"><title>LinkedIn</title><desc>Created with Sketch.</desc><g id="Symbols" stroke="none" stroke-width="1" fill="none" fill-rule="evenodd"><g id="Footer" transform="translate(-85.000000, -193.000000)"><g id="LinkedIn" transform="translate(86.000000, 194.000000)"><path d="M8.20605744,10.2086055 L10.7642286,10.2086055 L10.7642286,19.1241596 L8.20605744,19.1241596 L8.20605744,10.2086055 Z M9.41993474,9.09342585 L9.40141404,9.09342585 C8.47537923,9.09342585 7.875,8.41188052 7.875,7.54881387 C7.875,6.66809931 8.49312823,6 9.43768374,6 C10.3814675,6 10.9617827,6.66641856 10.9803034,7.54629274 C10.9803034,8.40935939 10.3814675,9.09342585 9.41993474,9.09342585 L9.41993474,9.09342585 Z M21,19.125 L18.099196,19.125 L18.099196,14.5104927 C18.099196,13.3028717 17.6454389,12.4793027 16.6476364,12.4793027 C15.8844294,12.4793027 15.4599968,13.0347916 15.2624427,13.5717922 C15.1883599,13.763398 15.1999353,14.0314781 15.1999353,14.3003986 L15.1999353,19.125 L12.3261406,19.125 C12.3261406,19.125 12.363182,10.9514983 12.3261406,10.2086055 L15.1999353,10.2086055 L15.1999353,11.6078323 C15.3697084,10.9960382 16.2880262,10.1228871 17.7534763,10.1228871 C19.5715913,10.1228871 21,11.406142 21,14.1667787 L21,19.125 L21,19.125 Z" id="Shape" fill="#056180"></path><circle id="Oval" stroke="#056180" cx="14" cy="14" r="14"></circle></g></g></g></svg>