<svg xmlns="http://www.w3.org/2000/svg" xmlns:xlink="http://www.w3.org/1999/xlink" width="30px" height="30px" viewBox="0 0 30 30"><title>D3255223-CCD2-41A0-AFD7-7F9CA3058D9C</title><g id="Desktop" stroke="none" stroke-width="1" fill="none" fill-rule="evenodd"><g id="01_Homepage" transform="translate(-47.000000, -6448.000000)"><g id="Footer" transform="translate(0.000000, 6255.000000)"><g id="Twitter" transform="translate(48.000000, 194.000000)"><path d="M19.350766,9.93667846 C19.9440629,9.55447422 20.3993074,8.94843276 20.61296,8.22649141 C20.0574632,8.58126896 19.4436227,8.83784125 18.7886952,8.97674419 C18.266068,8.37512639 17.5191055,8 16.6924341,8 C15.1064741,8 13.8212714,9.38460566 13.8212714,11.0921385 C13.8212714,11.3345551 13.8451018,11.5707786 13.8944063,11.7963852 C11.5080707,11.6672144 9.39208781,10.4374368 7.97458473,8.56534378 C7.72724071,9.02363498 7.58590127,9.55447422 7.58590127,10.1207027 C7.58590127,11.192998 8.09291542,12.1396613 8.8637084,12.695273 C8.39285085,12.6793478 7.9499325,12.5386754 7.56207079,12.3086451 L7.56207079,12.3466886 C7.56207079,13.8454247 8.55144685,15.0955511 9.86705406,15.3786653 C9.62546223,15.4512133 9.37236603,15.4874874 9.10940893,15.4874874 C8.92451723,15.4874874 8.74373423,15.468908 8.56952515,15.432634 C8.93437812,16.6606421 9.99524564,17.5559909 11.2525092,17.5798787 C10.2688854,18.4097573 9.03052181,18.9034378 7.68533192,18.9034378 C7.45360099,18.9034378 7.22433527,18.8901668 7,18.8609707 C8.2712332,19.7377401 9.78077126,20.25 11.4028878,20.25 C16.6866819,20.25 19.5742795,15.5379171 19.5742795,11.4513397 C19.5742795,11.3168605 19.572636,11.1832659 19.5668838,11.0514408 C20.1281329,10.6152679 20.616247,10.070273 21,9.45007583 C20.4847684,9.69603134 19.9309151,9.86236097 19.350766,9.93667846 Z" id="Shape" fill="#056180"></path><circle id="Oval-Copy" stroke="#056180" cx="14" cy="14" r="14"></circle></g></g></g></g></svg>